<svg width="24" height="24" viewBox="0 0 24 24" fill="none" xmlns="http://www.w3.org/2000/svg">
<path d="M6.99791 21.0037H5.9975C4.33995 21.0037 2.99625 19.66 2.99625 18.0025V17.0021" stroke="#323232" stroke-width="1.5" stroke-linecap="round" stroke-linejoin="round"/>
<path d="M17.0021 2.99622H18.0025C19.6601 2.99622 21.0038 4.33992 21.0038 5.99747V6.99788" stroke="#323232" stroke-width="1.5" stroke-linecap="round" stroke-linejoin="round"/>
<path d="M2.99625 6.99788V5.99747C2.99625 4.33992 4.33995 2.99622 5.9975 2.99622H6.99791" stroke="#323232" stroke-width="1.5" stroke-linecap="round" stroke-linejoin="round"/>
<path d="M21.0038 17.0021V18.0025C21.0038 19.66 19.6601 21.0037 18.0025 21.0037H17.0021" stroke="#323232" stroke-width="1.5" stroke-linecap="round" stroke-linejoin="round"/>
<path fill-rule="evenodd" clip-rule="evenodd" d="M8.99875 5.9975H15.0012C16.6588 5.9975 18.0025 7.3412 18.0025 8.99875V10.9996H5.9975V8.99875C5.9975 7.3412 7.3412 5.9975 8.99875 5.9975Z" stroke="#323232" stroke-width="1.5" stroke-linecap="round" stroke-linejoin="round"/>
<path d="M18.0025 14.0009V15.0013C18.0025 16.6588 16.6588 18.0025 15.0012 18.0025H8.99875C7.3412 18.0025 5.9975 16.6588 5.9975 15.0013V14.0009" stroke="#323232" stroke-width="1.5" stroke-linecap="round" stroke-linejoin="round"/>
<path d="M3.99667 10.9996H20.0033" stroke="#323232" stroke-width="1.5" stroke-linecap="round" stroke-linejoin="round"/>
</svg>
