<svg width="20" height="19" viewBox="0 0 20 19" fill="none" xmlns="http://www.w3.org/2000/svg">
<path fill-rule="evenodd" clip-rule="evenodd" d="M10.8565 1.42701L12.6839 5.07776C12.863 5.43616 13.2087 5.68467 13.6095 5.74218L17.6975 6.33062C18.7076 6.47644 19.1095 7.70055 18.3785 8.40194L15.4224 11.2424C15.1319 11.5218 14.9996 11.9233 15.0684 12.3176L15.766 16.3278C15.9378 17.3198 14.882 18.0767 13.9792 17.6074L10.3254 15.7127C9.96722 15.5268 9.53822 15.5268 9.17898 15.7127L5.5252 17.6074C4.62243 18.0767 3.56659 17.3198 3.73944 16.3278L4.43604 12.3176C4.50477 11.9233 4.37253 11.5218 4.08201 11.2424L1.12588 8.40194C0.394913 7.70055 0.796839 6.47644 1.80686 6.33062L5.89485 5.74218C6.29573 5.68467 6.64247 5.43616 6.82157 5.07776L8.64794 1.42701C9.09985 0.524331 10.4045 0.524331 10.8565 1.42701Z" stroke="black" stroke-width="1.5" stroke-linecap="round" stroke-linejoin="round"/>
</svg>
