<svg width="20" height="20" viewBox="0 0 20 20" fill="none" xmlns="http://www.w3.org/2000/svg">
<path d="M7.15323 3.408C8.42023 1.136 9.05323 0 10.0002 0C10.9472 0 11.5802 1.136 12.8472 3.408L13.1752 3.996C13.5352 4.642 13.7152 4.965 13.9952 5.178C14.2752 5.391 14.6252 5.47 15.3252 5.628L15.9612 5.772C18.4212 6.329 19.6502 6.607 19.9432 7.548C20.2352 8.488 19.3972 9.469 17.7202 11.43L17.2862 11.937C16.8102 12.494 16.5712 12.773 16.4642 13.117C16.3572 13.462 16.3932 13.834 16.4652 14.577L16.5312 15.254C16.7842 17.871 16.9112 19.179 16.1452 19.76C15.3792 20.342 14.2272 19.811 11.9252 18.751L11.3282 18.477C10.6742 18.175 10.3472 18.025 10.0002 18.025C9.65323 18.025 9.32623 18.175 8.67223 18.477L8.07623 18.751C5.77323 19.811 4.62123 20.341 3.85624 19.761C3.08924 19.179 3.21623 17.871 3.46923 15.254L3.53523 14.578C3.60723 13.834 3.64323 13.462 3.53523 13.118C3.42923 12.773 3.19024 12.494 2.71424 11.938L2.28024 11.43C0.603235 9.47 -0.234765 8.489 0.057235 7.548C0.350235 6.607 1.58024 6.328 4.04024 5.772L4.67624 5.628C5.37524 5.47 5.72424 5.391 6.00524 5.178C6.28524 4.965 6.46523 4.642 6.82523 3.996L7.15323 3.408Z" fill="#FBC70D"/>
</svg>
